<svg width="64" height="64" viewBox="0 0 64 64" fill="none" xmlns="http://www.w3.org/2000/svg">
<rect width="64" height="64" rx="8" fill="#8B0000"/>
<path d="M29.9995 20.0002H35.9995L42.5795 13.4002C42.7654 13.2127 42.9866 13.0639 43.2303 12.9624C43.474 12.8609 43.7355 12.8086 43.9995 12.8086C44.2635 12.8086 44.5249 12.8609 44.7686 12.9624C45.0123 13.0639 45.2336 13.2127 45.4195 13.4002L50.5795 18.5802C50.952 18.9549 51.1611 19.4618 51.1611 19.9902C51.1611 20.5186 50.952 21.0255 50.5795 21.4002L45.9995 26.0002H29.9995V30.0002C29.9995 30.5306 29.7888 31.0393 29.4137 31.4144C29.0386 31.7895 28.5299 32.0002 27.9995 32.0002C27.469 32.0002 26.9603 31.7895 26.5853 31.4144C26.2102 31.0393 25.9995 30.5306 25.9995 30.0002V24.0002C25.9995 22.9393 26.4209 21.9219 27.171 21.1718C27.9212 20.4216 28.9386 20.0002 29.9995 20.0002ZM17.9995 30.0002V38.0002L13.4195 42.5802C13.047 42.9549 12.8379 43.4618 12.8379 43.9902C12.8379 44.5186 13.047 45.0255 13.4195 45.4002L18.5795 50.5802C18.7654 50.7677 18.9866 50.9164 19.2303 51.018C19.474 51.1195 19.7355 51.1718 19.9995 51.1718C20.2635 51.1718 20.5249 51.1195 20.7686 51.018C21.0123 50.9164 21.2335 50.7677 21.4195 50.5802L29.9995 42.0002H37.9995C38.5299 42.0002 39.0386 41.7895 39.4137 41.4144C39.7888 41.0393 39.9995 40.5306 39.9995 40.0002V38.0002H41.9995C42.5299 38.0002 43.0386 37.7895 43.4137 37.4144C43.7888 37.0393 43.9995 36.5306 43.9995 36.0002V34.0002H45.9995C46.5299 34.0002 47.0386 33.7895 47.4137 33.4144C47.7888 33.0393 47.9995 32.5306 47.9995 32.0002V30.0002H33.9995V32.0002C33.9995 33.0611 33.578 34.0785 32.8279 34.8286C32.0778 35.5788 31.0603 36.0002 29.9995 36.0002H25.9995C24.9386 36.0002 23.9212 35.5788 23.171 34.8286C22.4209 34.0785 21.9995 33.0611 21.9995 32.0002V26.0002L17.9995 30.0002Z" fill="white"/>
</svg>
