<svg width="64" height="64" viewBox="0 0 64 64" fill="none" xmlns="http://www.w3.org/2000/svg">
<rect width="64" height="64" rx="8" fill="#8B0000"/>
<path d="M27.1279 25.46L28.1579 29.186C29.1279 32.696 29.6119 34.452 31.0379 35.25C32.4639 36.05 34.2739 35.578 37.8939 34.638L41.7339 33.638C45.3539 32.698 47.1639 32.228 47.9879 30.846C48.8119 29.462 48.3279 27.706 47.3559 24.196L46.3279 20.472C45.3579 16.96 44.8719 15.204 43.4479 14.406C42.0199 13.606 40.2099 14.078 36.5899 15.02L32.7499 16.016C29.1299 16.956 27.3199 17.428 26.4979 18.812C25.6739 20.194 26.1579 21.95 27.1279 25.46Z" fill="white"/>
<path d="M12.5544 18.4936C12.6071 18.3036 12.6967 18.1259 12.8181 17.9706C12.9395 17.8153 13.0904 17.6855 13.262 17.5885C13.4336 17.4916 13.6227 17.4294 13.8183 17.4055C14.014 17.3817 14.2125 17.3967 14.4024 17.4496L17.8084 18.3936C18.7108 18.6393 19.5343 19.1143 20.1988 19.7725C20.8632 20.4306 21.3461 21.2495 21.6004 22.1496L25.9024 37.7216L26.2184 38.8156C27.4939 39.2857 28.5687 40.1805 29.2624 41.3496L29.8824 41.1576L47.6224 36.5476C47.8131 36.4979 48.0116 36.4863 48.2068 36.5134C48.402 36.5405 48.5899 36.6058 48.7598 36.7056C48.9297 36.8053 49.0784 36.9375 49.1972 37.0947C49.316 37.2519 49.4027 37.4309 49.4524 37.6216C49.502 37.8122 49.5136 38.0108 49.4865 38.206C49.4594 38.4012 49.3941 38.5891 49.2944 38.759C49.1947 38.9289 49.0624 39.0776 48.9053 39.1964C48.7481 39.3152 48.5691 39.4019 48.3784 39.4516L30.7044 44.0436L30.0444 44.2476C30.0324 46.7876 28.2784 49.1116 25.6244 49.7996C22.4444 50.6276 19.1744 48.7956 18.3224 45.7116C17.4704 42.6276 19.3584 39.4536 22.5384 38.6276C22.697 38.5876 22.855 38.5529 23.0124 38.5236L18.7084 22.9476C18.592 22.5477 18.3744 22.1846 18.0765 21.8934C17.7787 21.6023 17.4108 21.3929 17.0084 21.2856L13.6004 20.3396C13.4105 20.2871 13.2328 20.1977 13.0774 20.0765C12.922 19.9553 12.7921 19.8047 12.6949 19.6333C12.5978 19.4618 12.5354 19.273 12.5113 19.0774C12.4872 18.8818 12.5018 18.6835 12.5544 18.4936Z" fill="white"/>
</svg>
