<svg width="64" height="64" viewBox="0 0 64 64" fill="none" xmlns="http://www.w3.org/2000/svg">
<rect width="64" height="64" rx="8" fill="#8B0000"/>
<path fill-rule="evenodd" clip-rule="evenodd" d="M20.586 27.414L30.586 37.414L32 38.828L33.414 37.414L43.414 27.414L40.586 24.586L34 31.172V16H44C45.0609 16 46.0783 16.4214 46.8284 17.1716C47.5786 17.9217 48 18.9391 48 20V44C48 45.0609 47.5786 46.0783 46.8284 46.8284C46.0783 47.5786 45.0609 48 44 48H20C18.9391 48 17.9217 47.5786 17.1716 46.8284C16.4214 46.0783 16 45.0609 16 44V20C16 18.9391 16.4214 17.9217 17.1716 17.1716C17.9217 16.4214 18.9391 16 20 16H30V31.172L23.414 24.586L20.586 27.414Z" fill="white"/>
</svg>
