<svg width="32" height="32" viewBox="0 0 32 32" fill="none" xmlns="http://www.w3.org/2000/svg">
<rect width="32" height="32" rx="8" fill="#8B0000"/>
<path d="M8 18.8928C8 19.5704 8.5456 20.116 9.636 21.2064L10.7936 22.364C11.884 23.4544 12.4296 24 13.1072 24C13.7848 24 14.3312 23.4544 15.4216 22.364L22.364 15.4216C23.4544 14.3304 24 13.784 24 13.1072C24 12.4304 23.4544 11.884 22.364 10.7936L21.2064 9.636C20.116 8.5456 19.5704 8 18.8928 8C18.2896 8 17.792 8.432 16.9216 9.2944C16.9456 9.312 16.9683 9.33147 16.9896 9.3528L18.1216 10.4848C18.1789 10.5402 18.2246 10.6064 18.256 10.6796C18.2874 10.7528 18.3039 10.8316 18.3045 10.9112C18.3052 10.9909 18.29 11.0699 18.2598 11.1436C18.2296 11.2174 18.185 11.2843 18.1286 11.3406C18.0723 11.3969 18.0053 11.4415 17.9315 11.4716C17.8578 11.5017 17.7787 11.5169 17.6991 11.5161C17.6194 11.5154 17.5407 11.4988 17.4675 11.4674C17.3943 11.4359 17.3281 11.3901 17.2728 11.3328L16.1416 10.2016C16.1206 10.1798 16.1008 10.1568 16.0824 10.1328L15.224 10.9912C15.248 11.0088 15.2709 11.0285 15.2928 11.0504L16.9896 12.7472C17.0485 12.8021 17.0958 12.8684 17.1286 12.942C17.1614 13.0156 17.1791 13.095 17.1805 13.1756C17.1819 13.2561 17.1671 13.3362 17.1369 13.4109C17.1067 13.4856 17.0618 13.5535 17.0048 13.6104C16.9479 13.6674 16.88 13.7123 16.8053 13.7425C16.7306 13.7727 16.6505 13.7875 16.57 13.7861C16.4894 13.7847 16.41 13.767 16.3364 13.7342C16.2628 13.7014 16.1965 13.6542 16.1416 13.5952L14.444 11.8992C14.423 11.8771 14.4032 11.8539 14.3848 11.8296L13.528 12.688C13.5515 12.7056 13.5744 12.7253 13.5968 12.7472L14.728 13.8784C14.834 13.9921 14.8917 14.1426 14.8889 14.298C14.8862 14.4535 14.8232 14.6018 14.7133 14.7117C14.6034 14.8216 14.4551 14.8846 14.2996 14.8873C14.1442 14.8901 13.9937 14.8324 13.88 14.7264L12.7464 13.5968C12.7254 13.575 12.7056 13.552 12.6872 13.528L11.8296 14.384C11.8541 14.4016 11.8771 14.4213 11.8984 14.4432L13.596 16.1408C13.7052 16.254 13.7656 16.4056 13.7642 16.5629C13.7628 16.7202 13.6996 16.8707 13.5883 16.9819C13.477 17.0931 13.3265 17.1561 13.1692 17.1574C13.0118 17.1587 12.8603 17.0981 12.7472 16.9888L11.0504 15.292C11.0294 15.2702 11.0096 15.2472 10.9912 15.2232L10.1328 16.0816C10.1568 16.0987 10.1797 16.1184 10.2016 16.1408L11.3328 17.272C11.4388 17.3857 11.4965 17.5362 11.4937 17.6916C11.491 17.8471 11.428 17.9954 11.3181 18.1053C11.2082 18.2152 11.0599 18.2782 10.9044 18.2809C10.749 18.2837 10.5985 18.226 10.4848 18.12L9.352 16.9904C9.33128 16.9688 9.31178 16.9461 9.2936 16.9224C8.4312 17.792 8 18.2896 8 18.8928Z" fill="white"/>
</svg>
