<svg width="32" height="32" viewBox="0 0 32 32" fill="none" xmlns="http://www.w3.org/2000/svg">
<rect width="32" height="32" rx="8" fill="#8B0000"/>
<path d="M12.962 11.9912C12.7575 12.0757 12.65 12.1568 12.6183 12.1898L11.4667 10.9948L13.6958 8.68195C14.6022 7.7414 16.1822 7.75493 17.2279 8.83997L18.1718 9.81938C18.326 9.66954 18.5302 9.58772 18.7414 9.59119C18.9527 9.59466 19.1543 9.68315 19.3038 9.83798L22.647 13.3069C22.7963 13.4619 22.8818 13.6711 22.8853 13.8903C22.8888 14.1095 22.8101 14.3214 22.6658 14.4815L23.7611 15.619C23.8369 15.6974 23.8969 15.7906 23.9379 15.8932C23.9789 15.9958 24 16.1058 24 16.2168C24 16.3279 23.9789 16.4379 23.9379 16.5404C23.8969 16.643 23.8369 16.7362 23.7611 16.8147L22.09 18.5488C21.9372 18.7072 21.7301 18.7962 21.5142 18.7962C21.2982 18.7962 21.0911 18.7072 20.9384 18.5488L19.8422 17.4113C19.6973 17.5521 19.5078 17.6332 19.3094 17.6392C19.111 17.6453 18.9173 17.576 18.7647 17.4443L15.3156 13.8672C15.1886 13.7087 15.1218 13.5074 15.1278 13.3014C15.1338 13.0953 15.2122 12.8986 15.3482 12.7483L14.6568 12.0317C14.5102 11.8796 14.1632 11.7596 13.6322 11.8205C13.4024 11.8472 13.1776 11.9045 12.962 11.9912ZM14.1991 15.0967L9.23845 20.2448C9.08577 20.4032 9 20.6181 9 20.8422C9 21.0663 9.08577 21.2812 9.23845 21.4397L11.4667 23.7526C11.6194 23.911 11.8265 24 12.0425 24C12.2584 24 12.4656 23.911 12.6183 23.7526L17.5789 18.6054L14.1991 15.0984V15.0967Z" fill="white"/>
</svg>
