<svg width="32" height="32" viewBox="0 0 32 32" fill="none" xmlns="http://www.w3.org/2000/svg">
<rect width="32" height="32" rx="8" fill="#8B0000"/>
<path d="M17.6 14.4V13.184C17.6 12.616 17.032 12.232 16.504 12.44L13.6 13.6V13.216C13.6 12.64 13.016 12.248 12.488 12.48L8.968 13.984C8.384 14.24 8 14.816 8 15.456V22.4C8 23.28 8.72 24 9.6 24H22.4C23.28 24 24 23.28 24 22.4V14.4H17.6ZM13.6 20C13.6 20.44 13.24 20.8 12.8 20.8C12.36 20.8 12 20.44 12 20V18.4C12 17.96 12.36 17.6 12.8 17.6C13.24 17.6 13.6 17.96 13.6 18.4V20ZM16.8 20C16.8 20.44 16.44 20.8 16 20.8C15.56 20.8 15.2 20.44 15.2 20V18.4C15.2 17.96 15.56 17.6 16 17.6C16.44 17.6 16.8 17.96 16.8 18.4V20ZM20 20C20 20.44 19.64 20.8 19.2 20.8C18.76 20.8 18.4 20.44 18.4 20V18.4C18.4 17.96 18.76 17.6 19.2 17.6C19.64 17.6 20 17.96 20 18.4V20ZM22.496 8H21.512C21.104 8 20.768 8.304 20.72 8.704L20.16 13.2H23.84L23.288 8.704C23.24 8.304 22.896 8 22.496 8Z" fill="white"/>
</svg>
