<svg width="40" height="40" viewBox="0 0 40 40" fill="none" xmlns="http://www.w3.org/2000/svg">
<path fill-rule="evenodd" clip-rule="evenodd" d="M20.3492 32.9258C17.1597 32.9258 15.6775 32.5517 13.1011 31.0553C11.4714 32.7388 6.31088 34.0544 6.08583 31.8035C6.08583 30.1137 5.62022 28.6859 5.09252 27.1271C4.46394 25.2067 3.75 23.068 3.75 19.9691C3.75 12.568 11.3085 7 20.2638 7C29.2269 7 36.2499 12.8423 36.2499 20.0377C36.2644 23.44 34.5982 26.7079 31.6171 29.1241C28.636 31.5404 24.5836 32.9077 20.3492 32.9258ZM20.4811 13.3973C16.1198 13.2165 12.7208 15.6419 11.9681 19.4454C11.3473 22.5941 12.4492 26.4288 13.3882 26.6283C13.8383 26.7156 14.9713 25.9798 15.6775 25.4124C16.8452 26.0606 18.205 26.4499 19.6197 26.541C21.792 26.625 23.9186 26.0208 25.5424 24.8584C27.1662 23.6959 28.1576 22.068 28.3034 20.3245C28.3883 18.5775 27.6163 16.8734 26.1533 15.5791C24.6904 14.2847 22.6536 13.5035 20.4811 13.4035V13.3973Z" fill="#8B0000"/>
</svg>
