<svg width="40" height="40" viewBox="0 0 40 40" fill="none" xmlns="http://www.w3.org/2000/svg">
<path d="M20 4C11.168 4 4 11.168 4 20C4 28.832 11.168 36 20 36C28.832 36 36 28.832 36 20C36 11.168 28.832 4 20 4ZM27.424 14.88C27.184 17.408 26.144 23.552 25.616 26.384C25.392 27.584 24.944 27.984 24.528 28.032C23.6 28.112 22.896 27.424 22 26.832C20.592 25.904 19.792 25.328 18.432 24.432C16.848 23.392 17.872 22.816 18.784 21.888C19.024 21.648 23.12 17.92 23.2 17.584C23.2111 17.5331 23.2096 17.4803 23.1957 17.4301C23.1818 17.3799 23.1558 17.3339 23.12 17.296C23.024 17.216 22.896 17.248 22.784 17.264C22.64 17.296 20.4 18.784 16.032 21.728C15.392 22.16 14.816 22.384 14.304 22.368C13.728 22.352 12.64 22.048 11.824 21.776C10.816 21.456 10.032 21.28 10.096 20.72C10.128 20.432 10.528 20.144 11.28 19.84C15.952 17.808 19.056 16.464 20.608 15.824C25.056 13.968 25.968 13.648 26.576 13.648C26.704 13.648 27.008 13.68 27.2 13.84C27.36 13.968 27.408 14.144 27.424 14.272C27.408 14.368 27.44 14.656 27.424 14.88Z" fill="#8B0000"/>
</svg>
