<svg xmlns="http://www.w3.org/2000/svg" width="40" height="40" viewBox="0 0 40 40" fill="none">
  <path d="M20.664 27.333h1.729s.522-.058.789-.345c.245-.265.237-.762.237-.762s-.034-2.329 1.047-2.672c1.065-.338 2.433 2.25 3.883 3.245.011.008.019.014.03.02.884.61 1.559.478 1.559.478l3.129-.043s1.637-.102.860-1.387c-.064-.11-.454-.957-2.334-2.704-1.966-1.829-1.703-1.533.665-4.698 1.443-1.925 2.018-3.102 1.838-3.606-.172-.481-1.233-.354-1.233-.354l-3.52.022s-.261-.036-.455.082c-.189.115-.312.382-.312.382s-.558 1.487-1.302 2.752c-1.569 2.668-2.196 2.808-2.452 2.643-.596-.385-.447-1.554-.447-2.382 0-2.59.393-3.668-.766-3.946-.385-.093-.668-.154-1.651-.164-1.262-.013-2.33.004-2.935.300-.403.197-.713.635-.523.660.234.031.764.143 1.045.526.362.494.349 1.603.349 1.603s.208 3.048-.486 3.428c-.476.262-1.129-.272-2.530-2.715-.718-1.240-1.260-2.612-1.260-2.612s-.105-.259-.291-.398c-.226-.167-.541-.22-.541-.22l-3.344.021s-.502.014-.687.233c-.164.194-.013.596-.013.596s2.614 6.121 5.571 9.204c2.713 2.828 5.793 2.642 5.793 2.642z" fill="#8B0000"/>
</svg>
