<svg width="40" height="40" viewBox="0 0 40 40" fill="none" xmlns="http://www.w3.org/2000/svg">
<path fill-rule="evenodd" clip-rule="evenodd" d="M20.0007 3.33398C10.7957 3.33398 3.33398 10.7957 3.33398 20.0007C3.33398 23.1507 4.20898 26.1007 5.73065 28.614L4.24398 33.6673C4.15863 33.9575 4.15301 34.2652 4.22773 34.5583C4.30244 34.8513 4.45473 35.1189 4.66858 35.3327C4.88244 35.5466 5.14995 35.6989 5.44301 35.7736C5.73607 35.8483 6.04385 35.8427 6.33398 35.7573L11.3873 34.2707C13.9852 35.8422 16.9644 36.6712 20.0007 36.6673C29.2057 36.6673 36.6673 29.2057 36.6673 20.0007C36.6673 10.7957 29.2057 3.33398 20.0007 3.33398ZM16.2307 23.7723C19.6023 27.1423 22.8207 27.5873 23.9573 27.629C25.6856 27.6923 27.369 26.3723 28.024 24.8407C28.106 24.65 28.1356 24.4409 28.1098 24.2349C28.084 24.0289 28.0038 23.8336 27.8773 23.669C26.964 22.5023 25.729 21.664 24.5223 20.8307C24.2705 20.656 23.9608 20.5859 23.6583 20.635C23.3559 20.6841 23.0843 20.8487 22.9007 21.094L21.9007 22.619C21.8478 22.7007 21.7659 22.7592 21.6715 22.7827C21.5771 22.8062 21.4773 22.793 21.3923 22.7457C20.714 22.3573 19.7257 21.6973 19.0157 20.9873C18.3057 20.2773 17.6857 19.334 17.3373 18.699C17.2952 18.6181 17.2833 18.5248 17.3037 18.4359C17.3242 18.347 17.3757 18.2683 17.449 18.214L18.989 17.0707C19.2094 16.88 19.3517 16.6147 19.3886 16.3256C19.4255 16.0365 19.3544 15.7439 19.189 15.504C18.4423 14.4107 17.5723 13.0207 16.3107 12.099C16.1475 11.9817 15.9568 11.9086 15.7571 11.8867C15.5573 11.8648 15.3554 11.8949 15.1707 11.974C13.6373 12.6307 12.3107 14.314 12.374 16.0457C12.4157 17.1823 12.8607 20.4007 16.2307 23.7723Z" fill="#8B0000"/>
</svg>
